# xmcd CD database file
#
# Track frame offsets:
#	150
#	17425
#	36222
#	49522
#	62225
#	79312
#	92947
#	108667
#	129355
#	147560
#	168832
#	184445
#	194755
#	209782
#	224565
#	242020
#	252425
#	267305
#	282032
#	294727
#	313032
#
# Disc length: 4411 seconds
#
# Revision: 0
# Processed by: cddbd v1.5.2PL0 Copyright (c) Steve Scherf et al.
# Submitted via: CDex 1.70beta2
#
DISCID=54113915
DTITLE=Various Artist - Step In Line Again
DYEAR=2000
DGENRE=Country
TTITLE0=Travis Tritt - Rough Around The Edges
TTITLE1=Kenny Rogers and Dolly Parton - Islands In The Stream
TTITLE2=Joni Harms - Catalog Dreams
TTITLE3=Brady Seals - Love You Too Much
TTITLE4=Claudia Church - What's The Matter With You Baby
TTITLE5=Michael Peterson - Laughing All The Way To The Bank
TTITLE6=Dwight Yoakam - These Arms
TTITLE7=Groovegrass 101 - Cypress Grove
TTITLE8=Anita Cochran - Let The Guitar Do The Talkin'
TTITLE9=Chad Brock - Evangeline (Dance Mix)
TTITLE10=Tracy Lawrence - Up All Night
TTITLE11=John Michael Montgomery - Love Made Me Do It
TTITLE12=Paul Brandt - Let's Live It Up
TTITLE13=Confederate Railroad - Momma Ain't Home Tonight
TTITLE14=Lila McCann - Hit By Love
TTITLE15=Neal McCoy - Straighten Up And Fly Right
TTITLE16=George Jones - Real Deal
TTITLE17=Emmylou Harris - Blue Kentucky Girl
TTITLE18=Randy Travis - Cowboy Boogie
TTITLE19=Lace - I Want A Man
TTITLE20=Noel Haggard - Cowgirl Blues
EXTD=YEAR: 2000
EXTT0=
EXTT1=
EXTT2=
EXTT3=
EXTT4=
EXTT5=
EXTT6=
EXTT7=
EXTT8=
EXTT9=
EXTT10=
EXTT11=
EXTT12=
EXTT13=
EXTT14=
EXTT15=
EXTT16=
EXTT17=
EXTT18=
EXTT19=
EXTT20=
PLAYORDER=
